<svg xmlns="http://www.w3.org/2000/svg" width="420mm" height="297mm" viewBox="0 0 420 297">
<rect width="420" height="297" fill="#fcfcfb"/>
<defs>
  <marker id="arr" markerWidth="6" markerHeight="6" refX="3" refY="3" orient="auto" markerUnits="strokeWidth"><path d="M0,0 L6,3 L0,6 z" fill="#15171a"/></marker>
  <marker id="arr-orange" markerWidth="6" markerHeight="6" refX="3" refY="3" orient="auto" markerUnits="strokeWidth"><path d="M0,0 L6,3 L0,6 z" fill="#d65a24"/></marker>
  <pattern id="hatch" width="3" height="3" patternUnits="userSpaceOnUse" patternTransform="rotate(45)"><line x1="0" y1="0" x2="0" y2="3" stroke="#7b7e83" stroke-width="0.25"/></pattern>
  <pattern id="screen" width="3" height="3" patternUnits="userSpaceOnUse"><path d="M0,0 L3,3 M3,0 L0,3" stroke="#88909a" stroke-width="0.18"/></pattern>
  <style>
    text { font-family: Arial, Helvetica, sans-serif; fill:#15171a; }
    .thin { stroke:#15171a; stroke-width:.28; fill:none; }
    .med { stroke:#15171a; stroke-width:.55; fill:none; }
    .heavy { stroke:#15171a; stroke-width:1.05; fill:none; }
    .hidden { stroke:#59616b; stroke-width:.28; stroke-dasharray:2 1.2; fill:none; }
    .phantom { stroke:#d65a24; stroke-width:.35; stroke-dasharray:5 1 1 1; fill:none; }
    .center { stroke:#73808d; stroke-width:.22; stroke-dasharray:4 1 1 1; fill:none; }
    .dim { stroke:#15171a; stroke-width:.25; fill:none; marker-start:url(#arr); marker-end:url(#arr); }
    .leader { stroke:#15171a; stroke-width:.3; fill:none; marker-end:url(#arr); }
    .motion { stroke:#d65a24; stroke-width:.55; fill:none; marker-end:url(#arr-orange); }
    .ref { fill:#fff6d9; stroke:#c49817; stroke-width:.25; }
    .unverified { fill:#fff0f0; stroke:#ba3d3d; stroke-width:.3; }
    .keepout { fill:#dd3c3c; fill-opacity:.08; stroke:#c63333; stroke-width:.35; stroke-dasharray:4 2; }
    .metal { fill:#e1e4e8; stroke:#15171a; stroke-width:.35; }
    .plastic { fill:#f7f8f9; stroke:#15171a; stroke-width:.35; }
    .cut { fill:url(#hatch); stroke:#15171a; stroke-width:.45; }
  </style>
</defs>
<text x="13" y="15" font-size="3.2" font-weight="bold" text-anchor="start">FUNCTIONAL-AXIS EXPLOSION</text>
<text x="13" y="18.8" font-size="2.3" font-weight="normal" text-anchor="start">SCALE NTS - DO NOT SCALE</text>
<rect x="76.0" y="22" width="100" height="14" rx="1" class="med" fill="#f6f7f8"/>
<line x1="126" y1="36" x2="126" y2="40" class="center"/>
<circle cx="47" cy="29.0" r="4.0" class="med" fill="#ffffff"/>
<text x="47" y="30.2" font-size="2.6" font-weight="bold" text-anchor="middle">B10/B11</text>
<line x1="47" y1="33.0" x2="76.0" y2="29.0" class="leader"/>
<text x="175" y="30.0" font-size="2.7" font-weight="bold" text-anchor="start">MESH CEILING CASSETTE</text>
<rect x="70.0" y="48" width="112" height="9" rx="1" class="med" fill="#f6f7f8"/>
<line x1="126" y1="57" x2="126" y2="66" class="center"/>
<circle cx="47" cy="52.5" r="4.0" class="med" fill="#ffffff"/>
<text x="47" y="53.7" font-size="2.6" font-weight="bold" text-anchor="middle">B01/B02</text>
<line x1="47" y1="56.5" x2="70.0" y2="52.5" class="leader"/>
<text x="175" y="53.5" font-size="2.7" font-weight="bold" text-anchor="start">TOP PERIMETER / CORNERS</text>
<rect x="81.0" y="72" width="90" height="42" rx="1" class="med" fill="#f6f7f8"/>
<line x1="126" y1="114" x2="126" y2="90" class="center"/>
<circle cx="47" cy="93.0" r="4.0" class="med" fill="#ffffff"/>
<text x="47" y="94.2" font-size="2.6" font-weight="bold" text-anchor="middle">B05</text>
<line x1="47" y1="97.0" x2="81.0" y2="93.0" class="leader"/>
<text x="175" y="94.0" font-size="2.7" font-weight="bold" text-anchor="start">VIEW / DOOR CASSETTES</text>
<rect x="70.0" y="124" width="112" height="9" rx="1" class="med" fill="#f6f7f8"/>
<line x1="126" y1="133" x2="126" y2="142" class="center"/>
<circle cx="47" cy="128.5" r="4.0" class="med" fill="#ffffff"/>
<text x="47" y="129.7" font-size="2.6" font-weight="bold" text-anchor="middle">B03</text>
<line x1="47" y1="132.5" x2="70.0" y2="128.5" class="leader"/>
<text x="175" y="129.5" font-size="2.7" font-weight="bold" text-anchor="start">MID-SPAN JOINT</text>
<rect x="81.0" y="146" width="90" height="35" rx="1" class="med" fill="#f6f7f8"/>
<line x1="126" y1="181" x2="126" y2="164" class="center"/>
<circle cx="47" cy="163.5" r="4.0" class="med" fill="#ffffff"/>
<text x="47" y="164.7" font-size="2.6" font-weight="bold" text-anchor="middle">B14/B15</text>
<line x1="47" y1="167.5" x2="81.0" y2="163.5" class="leader"/>
<text x="175" y="164.5" font-size="2.7" font-weight="bold" text-anchor="start">FALSE BOTTOM + TRAY</text>
<rect x="70.0" y="190" width="112" height="9" rx="1" class="med" fill="#f6f7f8"/>
<line x1="126" y1="199" x2="126" y2="208" class="center"/>
<circle cx="47" cy="194.5" r="4.0" class="med" fill="#ffffff"/>
<text x="47" y="195.7" font-size="2.6" font-weight="bold" text-anchor="middle">B01/B02</text>
<line x1="47" y1="198.5" x2="70.0" y2="194.5" class="leader"/>
<text x="175" y="195.5" font-size="2.7" font-weight="bold" text-anchor="start">BOTTOM PERIMETER</text>
<rect x="282" y="47" width="82" height="5" rx="1" class="med" fill="#dce2e6"/>
<circle cx="378" cy="49" r="4.0" class="med" fill="#ffffff"/>
<text x="378" y="50.2" font-size="2.6" font-weight="bold" text-anchor="middle">B18</text>
<line x1="378" y1="53" x2="364" y2="49" class="leader"/>
<rect x="298" y="65" width="24" height="15" rx="2" class="heavy" fill="#ffffff"/>
<circle cx="378" cy="72" r="4.0" class="med" fill="#ffffff"/>
<text x="378" y="73.2" font-size="2.6" font-weight="bold" text-anchor="middle">B22</text>
<line x1="378" y1="76" x2="322" y2="72" class="leader"/>
<rect x="302" y="95" width="16" height="13" rx="1" class="med" fill="#edf1f4"/>
<circle cx="310" cy="101.5" r="4" class="heavy" fill="#dfe5e9"/>
<circle cx="378" cy="101" r="4.0" class="med" fill="#ffffff"/>
<text x="378" y="102.2" font-size="2.6" font-weight="bold" text-anchor="middle">B36</text>
<line x1="378" y1="105" x2="318" y2="101" class="leader"/>
<path d="M310 108 C315 125, 350 135, 344 157" class="phantom"/>
<rect x="315" y="157" width="58" height="72" rx="4" class="heavy" fill="#edf1f4"/>
<rect x="326" y="180" width="34" height="20" rx="0" class="med" fill="#fff"/>
<text x="344" y="191" font-size="3" font-weight="bold" text-anchor="middle">TACHYON</text>
<circle cx="390" cy="175" r="4.0" class="med" fill="#ffffff"/>
<text x="390" y="176.2" font-size="2.6" font-weight="bold" text-anchor="middle">B42</text>
<line x1="390" y1="179" x2="373" y2="175" class="leader"/>
<line x1="310" y1="55" x2="310" y2="63" class="center"/>
<line x1="310" y1="83" x2="310" y2="91" class="center"/>
<line x1="310" y1="111" x2="310" y2="119" class="center"/>
<line x1="310" y1="160" x2="310" y2="168" class="center"/>
<rect x="13" y="215" width="187" height="19.0" rx="1.2" class="med" fill="#f7f8fa"/>
<text x="16" y="219.4" font-size="2.8" font-weight="bold" text-anchor="start">EXPLOSION RULE</text>
<text x="16" y="224" font-size="2.45" font-weight="normal" text-anchor="start">Subassemblies remain grouped; trail lines follow service axes.</text>
<text x="16" y="228" font-size="2.45" font-weight="normal" text-anchor="start">Rail, carriage, binder and compute brick are removable externally.</text>
<text x="16" y="232" font-size="2.45" font-weight="normal" text-anchor="start">No service operation opens a path from rail metal into wet volume.</text>
<rect x="215" y="215" width="190" height="19.0" rx="1.2" class="med" fill="#fff6d9"/>
<text x="218" y="219.4" font-size="2.8" font-weight="bold" text-anchor="start">INSTALL ORDER</text>
<text x="218" y="224" font-size="2.45" font-weight="normal" text-anchor="start">1 perimeter -&gt; 2 faces -&gt; 3 ceiling -&gt; 4 false bottom.</text>
<text x="218" y="228" font-size="2.45" font-weight="normal" text-anchor="start">5 animal-isolated rail -&gt; 6 carriage -&gt; 7 SerDes binder -&gt; 8 brick hub.</text>
<text x="218" y="232" font-size="2.45" font-weight="normal" text-anchor="start">First article requires leak, pinch, pull-off and nymph-gap checks.</text>
<line x1="8" y1="257.0" x2="412" y2="257.0" class="heavy"/>
<rect x="8" y="257.0" width="404" height="32" rx="0" class="med"/>
<line x1="270" y1="257.0" x2="270" y2="289" class="med"/>
<line x1="334" y1="257.0" x2="334" y2="289" class="med"/>
<line x1="376" y1="257.0" x2="376" y2="289" class="med"/>
<line x1="270" y1="268.0" x2="412" y2="268.0" class="thin"/>
<line x1="270" y1="278.0" x2="412" y2="278.0" class="thin"/>
<text x="13" y="265.0" font-size="5.0" font-weight="bold" text-anchor="start">PARTICLE-BASE MANTIS TERRARIUM</text>
<text x="13" y="272.0" font-size="4.0" font-weight="bold" text-anchor="start">EXPLODED ASSEMBLY</text>
<text x="13" y="280.0" font-size="3.0" font-weight="bold" text-anchor="start" fill="#ba3d3d">THEORETICAL - VERIFY AGAINST STEP / FIRST ARTICLE</text>
<text x="13" y="285.0" font-size="2.5" font-weight="normal" text-anchor="start">Units: mm | Projection: THIRD-ANGLE (ASME Y14.3)</text>
<text x="273" y="261.0" font-size="1.9" font-weight="bold" text-anchor="start">SCALE</text>
<text x="273" y="265.0" font-size="2.5" font-weight="normal" text-anchor="start">NTS</text>
<text x="337" y="261.0" font-size="1.9" font-weight="bold" text-anchor="start">DATE</text>
<text x="337" y="265.0" font-size="2.5" font-weight="normal" text-anchor="start">2026-08-20</text>
<text x="379" y="261.0" font-size="1.9" font-weight="bold" text-anchor="start">REV</text>
<text x="379" y="265.0" font-size="2.5" font-weight="normal" text-anchor="start">B-DRAFT</text>
<text x="273" y="272.0" font-size="1.9" font-weight="bold" text-anchor="start">SHEET</text>
<text x="273" y="276.0" font-size="2.5" font-weight="normal" text-anchor="start">03 OF 12 / S02</text>
<text x="337" y="272.0" font-size="1.9" font-weight="bold" text-anchor="start">STATUS</text>
<text x="337" y="276.0" font-size="2.5" font-weight="normal" text-anchor="start">CONCEPT LOCK</text>
<text x="379" y="272.0" font-size="1.9" font-weight="bold" text-anchor="start">DRAWN</text>
<text x="379" y="276.0" font-size="2.5" font-weight="normal" text-anchor="start">MANTIS LAB</text>
<text x="273" y="282.0" font-size="1.9" font-weight="bold" text-anchor="start">DWG</text>
<text x="273" y="286.0" font-size="2.5" font-weight="normal" text-anchor="start">MT-S02</text>
<text x="337" y="282.0" font-size="1.9" font-weight="bold" text-anchor="start">FORMAT</text>
<text x="337" y="286.0" font-size="2.5" font-weight="normal" text-anchor="start">A3 SVG/PDF</text>
<text x="379" y="282.0" font-size="1.9" font-weight="bold" text-anchor="start">TOL</text>
<text x="379" y="286.0" font-size="2.5" font-weight="normal" text-anchor="start">AS NOTED</text>
<path d="M226 276.0 L238 273.0 L238 284.0 L226 281.0 Z" class="med"/>
<circle cx="246" cy="278.5" r="6" class="med"/>
<text x="236" y="287.0" font-size="1.8" font-weight="bold" text-anchor="middle">3RD ANGLE</text>
<rect x="196" y="264.0" width="58" height="7" rx="1" class="unverified" fill="#fff0f0"/>
<text x="225" y="268.8" font-size="2.0" font-weight="bold" text-anchor="middle" fill="#ba3d3d">NTS - DO NOT SCALE</text>
</svg>