<svg xmlns="http://www.w3.org/2000/svg" width="420mm" height="297mm" viewBox="0 0 420 297">
<rect width="420" height="297" fill="#ffffff"/>
<defs>
  <marker id="arr" markerWidth="6" markerHeight="6" refX="3" refY="3" orient="auto" markerUnits="strokeWidth"><path d="M0,0 L6,3 L0,6 z" fill="#15171a"/></marker>
  <marker id="arr-orange" markerWidth="6" markerHeight="6" refX="3" refY="3" orient="auto" markerUnits="strokeWidth"><path d="M0,0 L6,3 L0,6 z" fill="#d65a24"/></marker>
  <pattern id="hatch" width="3" height="3" patternUnits="userSpaceOnUse" patternTransform="rotate(45)"><line x1="0" y1="0" x2="0" y2="3" stroke="#7b7e83" stroke-width="0.25"/></pattern>
  <pattern id="screen" width="3" height="3" patternUnits="userSpaceOnUse"><path d="M0,0 L3,3 M3,0 L0,3" stroke="#88909a" stroke-width="0.18"/></pattern>
  <style>
    text { font-family: Arial, Helvetica, sans-serif; fill:#15171a; }
    .thin { stroke:#15171a; stroke-width:.28; fill:none; }
    .med { stroke:#15171a; stroke-width:.55; fill:none; }
    .heavy { stroke:#15171a; stroke-width:1.05; fill:none; }
    .hidden { stroke:#59616b; stroke-width:.22; stroke-dasharray:1.6 1.1; fill:none; }
    .phantom { stroke:#d65a24; stroke-width:.35; stroke-dasharray:5 1 1 1; fill:none; }
    .center { stroke:#73808d; stroke-width:.22; stroke-dasharray:4 1 1 1; fill:none; }
    .dim { stroke:#15171a; stroke-width:.25; fill:none; marker-start:url(#arr); marker-end:url(#arr); }
    .leader { stroke:#15171a; stroke-width:.3; fill:none; marker-end:url(#arr); }
    .motion { stroke:#d65a24; stroke-width:.55; fill:none; marker-end:url(#arr-orange); }
    .ref { fill:#ffffff; stroke:#15171a; stroke-width:.45; }
    .unverified { fill:#ffffff; stroke:#ba3d3d; stroke-width:.45; }
    .keepout { fill:#dd3c3c; fill-opacity:.08; stroke:#c63333; stroke-width:.35; stroke-dasharray:4 2; }
    .hlr { stroke:#15171a; stroke-width:.45; fill:none; stroke-linecap:round; stroke-linejoin:round; }
    .hlr-keep { stroke:#c63333; stroke-width:.4; fill:none; stroke-dasharray:3.5 2; }
    .metal { fill:#f3f3f3; stroke:#15171a; stroke-width:.35; }
    .plastic { fill:#ffffff; stroke:#15171a; stroke-width:.35; }
    .cut { fill:url(#hatch); stroke:#15171a; stroke-width:.45; }
  </style>
</defs>
<rect x="8" y="8" width="404" height="249.0" rx="0" class="heavy"/>
<text x="12" y="15" font-size="3.2" font-weight="bold" text-anchor="start">TACHYON + DESERIALIZER CARRIER</text>
<text x="12" y="18.8" font-size="2.2" font-weight="normal" text-anchor="start">SCALE 1:1 DATASHEET ENVELOPE</text>
<text x="12" y="22.4" font-size="2.0" font-weight="normal" text-anchor="start">Not a sourced STEP. Envelope from Particle datasheet this run.</text>
<rect x="22" y="34" width="85" height="56" rx="0" class="heavy" fill="#ffffff"/>
<text x="64.5" y="57" font-size="4.5" font-weight="bold" text-anchor="middle">B42 TACHYON</text>
<text x="64.5" y="65" font-size="2.2" font-weight="middle" text-anchor="start">85 x 56 x 18.5 DATASHEET</text>
<rect x="31" y="78" width="22" height="5" rx="0" class="med" fill="#ffffff"/>
<rect x="75" y="78" width="22" height="5" rx="0" class="med" fill="#ffffff"/>
<text x="42" y="88" font-size="2.0" font-weight="bold" text-anchor="middle">DEDICATED CSI</text>
<text x="86" y="88" font-size="2.0" font-weight="bold" text-anchor="middle">SHARED DSI/CSI</text>
<rect x="124" y="34" width="66" height="56" rx="0" class="heavy" fill="#ffffff"/>
<text x="157" y="54" font-size="3.5" font-weight="bold" text-anchor="middle">B46 MAX96724</text>
<text x="157" y="62" font-size="2.3" font-weight="middle" text-anchor="start">4 x GMSL2 IN</text>
<text x="157" y="70" font-size="2.3" font-weight="middle" text-anchor="start">MIPI CSI-2 OUT</text>
<line x1="124" y1="80" x2="107" y2="80" class="motion"/>
<text x="106" y="105" font-size="2.2" font-weight="bold" text-anchor="middle" fill="#ba3d3d">DESERIALIZER CARRIER DIMS / TACHYON DRIVER SUPPORT UNVERIFIED</text>
<text x="215" y="15" font-size="3.2" font-weight="bold" text-anchor="start">OPTIONAL M1 EXTERNAL BRICK</text>
<text x="215" y="18.8" font-size="2.2" font-weight="normal" text-anchor="start">SCALE 1:2 DATASHEET ENVELOPE</text>
<rect x="236" y="28" width="60.5" height="110" rx="7" class="heavy" fill="#ffffff"/>
<rect x="246" y="48" width="40" height="68" rx="0" class="med" fill="#ffffff"/>
<text x="266" y="76" font-size="3.4" font-weight="bold" text-anchor="middle">TACHYON</text>
<text x="266" y="84" font-size="2.6" font-weight="middle" text-anchor="start">+ DES</text>
<circle cx="250" cy="129" r="6" class="med" fill="#fff"/>
<circle cx="282" cy="129" r="6" class="med" fill="#fff"/>
<line x1="236" y1="138" x2="236" y2="147" class="thin"/>
<line x1="296.5" y1="138" x2="296.5" y2="147" class="thin"/>
<line x1="236" y1="147" x2="296.5" y2="147" class="dim"/>
<text x="266.25" y="145.6" font-size="2.7" font-weight="normal" text-anchor="middle">121 DATASHEET</text>
<line x1="236" y1="28" x2="226" y2="28" class="thin"/>
<line x1="236" y1="138" x2="226" y2="138" class="thin"/>
<line x1="226" y1="28" x2="226" y2="138" class="dim"/>
<text x="224.3" y="83.0" font-size="2.7" font-weight="normal" text-anchor="middle" transform="rotate(-90 224.3 83.0)">220 DATASHEET</text>
<text x="266" y="155" font-size="2.2" font-weight="bold" text-anchor="middle">DEPTH 69 DATASHEET</text>
<text x="266" y="161" font-size="2.1" font-weight="bold" text-anchor="middle" fill="#0a7891">M20 NOT USED FOR MOVING CSI: NO CAMERA TETHER</text>
<text x="320" y="15" font-size="3.2" font-weight="bold" text-anchor="start">EXTERNAL MOUNT VS PR 34 FRONT</text>
<text x="320" y="18.8" font-size="2.2" font-weight="normal" text-anchor="start">SCALE 1:8  |  OCCT HLR</text>
<path d="M328.000 95.500 L328.000 33.000" class="hidden"/>
<path d="M328.000 33.000 L328.000 32.000" class="hidden"/>
<path d="M328.000 96.500 L328.000 95.500" class="hidden"/>
<path d="M328.000 32.000 L332.750 32.000" class="hidden"/>
<path d="M332.750 32.812 L332.750 32.000" class="hidden"/>
<path d="M328.000 96.500 L332.750 96.500" class="hidden"/>
<path d="M332.375 95.500 L332.750 95.500" class="hidden"/>
<path d="M332.750 96.500 L332.750 95.500" class="hidden"/>
<path d="M332.375 35.000 L332.375 33.000" class="hidden"/>
<path d="M332.375 35.000 L332.375 95.500" class="hidden"/>
<path d="M332.375 33.000 L332.750 33.000" class="hidden"/>
<path d="M332.375 95.500 L333.375 95.500" class="hidden"/>
<path d="M332.750 95.500 L332.750 35.000" class="hidden"/>
<path d="M332.750 32.812 L333.375 32.812" class="hidden"/>
<path d="M332.375 95.500 L332.375 33.000" class="hidden"/>
<path d="M332.750 33.000 L333.375 33.000" class="hidden"/>
<path d="M332.375 33.000 L333.375 33.000" class="hidden"/>
<path d="M332.375 95.500 L333.375 95.500" class="hidden"/>
<path d="M333.375 95.500 L334.625 95.500" class="hidden"/>
<path d="M333.375 35.000 L332.750 35.000" class="hidden"/>
<path d="M333.375 32.812 L364.625 32.812" class="hidden"/>
<path d="M333.375 32.812 L364.625 32.812" class="hidden"/>
<path d="M333.375 33.000 L333.375 32.812" class="hidden"/>
<path d="M333.375 33.000 L333.375 32.812" class="hidden"/>
<path d="M333.375 32.812 L364.625 32.812" class="hidden"/>
<path d="M332.375 95.500 L332.375 33.000" class="hidden"/>
<path d="M333.375 33.000 L334.625 33.000" class="hidden"/>
<path d="M334.625 33.000 L364.625 33.000" class="hidden"/>
<path d="M332.375 33.000 L333.375 33.000" class="hidden"/>
<path d="M333.375 33.000 L334.625 33.000" class="hidden"/>
<path d="M332.375 95.500 L333.375 95.500" class="hidden"/>
<path d="M333.375 95.500 L334.625 95.500" class="hidden"/>
<path d="M361.625 95.500 L364.625 95.500" class="hidden"/>
<path d="M336.375 95.500 L361.625 95.500" class="hidden"/>
<path d="M334.625 95.500 L336.375 95.500" class="hidden"/>
<path d="M334.625 35.000 L333.375 35.000" class="hidden"/>
<path d="M364.625 35.000 L334.625 35.000" class="hidden"/>
<path d="M364.625 32.812 L365.625 32.812" class="hidden"/>
<path d="M333.375 33.000 L364.625 33.000" class="hidden"/>
<path d="M364.625 33.000 L364.625 32.812" class="hidden"/>
<path d="M333.375 33.000 L364.625 33.000" class="hidden"/>
<path d="M364.625 33.000 L364.625 32.812" class="hidden"/>
<path d="M332.375 95.500 L332.375 33.000" class="hidden"/>
<path d="M361.625 33.000 L364.625 33.000" class="hidden"/>
<path d="M336.375 33.000 L361.625 33.000" class="hidden"/>
<path d="M334.625 33.000 L336.375 33.000" class="hidden"/>
<path d="M364.625 35.000 L365.625 35.000" class="hidden"/>
<path d="M364.625 35.000 L364.625 33.000" class="hidden"/>
<path d="M365.625 35.000 L365.625 32.812" class="hidden"/>
<path d="M332.375 33.000 L333.375 33.000" class="hidden"/>
<path d="M333.375 33.000 L334.625 33.000" class="hidden"/>
<path d="M333.375 95.500 L334.625 95.500" class="hidden"/>
<path d="M333.375 95.500 L334.625 95.500" class="hidden"/>
<path d="M333.375 95.500 L334.625 95.500" class="hidden"/>
<path d="M334.625 95.500 L336.375 95.500" class="hidden"/>
<path d="M336.375 95.500 L361.625 95.500" class="hidden"/>
<path d="M361.625 95.500 L364.625 95.500" class="hidden"/>
<path d="M364.625 95.500 L364.625 92.500" class="hidden"/>
<path d="M364.625 92.500 L364.625 65.625" class="hidden"/>
<path d="M364.625 65.625 L364.625 64.250" class="hidden"/>
<path d="M364.625 64.250 L364.625 62.875" class="hidden"/>
<path d="M364.625 62.875 L364.625 61.250" class="hidden"/>
<path d="M364.625 61.250 L364.625 36.000" class="hidden"/>
<path d="M364.625 36.000 L364.625 33.000" class="hidden"/>
<path d="M334.625 33.000 L336.375 33.000" class="hidden"/>
<path d="M336.375 33.000 L361.625 33.000" class="hidden"/>
<path d="M361.625 33.000 L364.625 33.000" class="hidden"/>
<path d="M333.375 33.000 L334.625 33.000" class="hidden"/>
<path d="M333.375 33.000 L334.625 33.000" class="hidden"/>
<path d="M333.375 33.000 L334.625 33.000" class="hidden"/>
<path d="M334.625 95.500 L336.375 95.500" class="hidden"/>
<path d="M334.625 95.500 L336.375 95.500" class="hidden"/>
<path d="M334.625 95.500 L336.375 95.500" class="hidden"/>
<path d="M336.375 95.500 L361.625 95.500" class="hidden"/>
<path d="M361.625 95.500 L364.625 95.500" class="hidden"/>
<path d="M364.625 95.500 L364.625 92.500" class="hidden"/>
<path d="M364.625 36.000 L364.625 33.000" class="hidden"/>
<path d="M364.625 61.250 L364.625 36.000" class="hidden"/>
<path d="M364.625 62.875 L364.625 61.250" class="hidden"/>
<path d="M364.625 64.250 L364.625 62.875" class="hidden"/>
<path d="M364.625 65.625 L364.625 64.250" class="hidden"/>
<path d="M364.625 92.500 L364.625 65.625" class="hidden"/>
<path d="M334.625 33.000 L336.375 33.000" class="hidden"/>
<path d="M336.375 33.000 L361.625 33.000" class="hidden"/>
<path d="M361.625 33.000 L364.625 33.000" class="hidden"/>
<path d="M334.625 33.000 L336.375 33.000" class="hidden"/>
<path d="M334.625 33.000 L336.375 33.000" class="hidden"/>
<path d="M336.375 92.500 L336.375 65.625" class="hidden"/>
<path d="M336.375 65.625 L336.375 64.250" class="hidden"/>
<path d="M336.375 64.250 L336.375 62.875" class="hidden"/>
<path d="M336.375 62.875 L336.375 61.250" class="hidden"/>
<path d="M336.375 61.250 L336.375 36.000" class="hidden"/>
<path d="M336.375 95.500 L361.625 95.500" class="hidden"/>
<path d="M336.375 95.500 L361.625 95.500" class="hidden"/>
<path d="M336.375 95.500 L336.375 92.500" class="hidden"/>
<path d="M336.375 95.500 L336.375 92.500" class="hidden"/>
<path d="M336.375 92.500 L361.625 92.500" class="hidden"/>
<path d="M361.625 95.500 L361.625 92.500" class="hidden"/>
<path d="M361.625 95.500 L364.625 95.500" class="hidden"/>
<path d="M364.625 95.500 L364.625 92.500" class="hidden"/>
<path d="M364.625 36.000 L364.625 33.000" class="hidden"/>
<path d="M364.625 61.250 L364.625 36.000" class="hidden"/>
<path d="M364.625 62.875 L364.625 61.250" class="hidden"/>
<path d="M364.625 64.250 L364.625 62.875" class="hidden"/>
<path d="M364.625 65.625 L364.625 64.250" class="hidden"/>
<path d="M364.625 92.500 L364.625 65.625" class="hidden"/>
<path d="M336.375 36.000 L361.625 36.000" class="hidden"/>
<path d="M336.375 36.000 L336.375 33.000" class="hidden"/>
<path d="M361.625 36.000 L361.625 33.000" class="hidden"/>
<path d="M361.625 33.000 L364.625 33.000" class="hidden"/>
<path d="M336.375 33.000 L361.625 33.000" class="hidden"/>
<path d="M336.375 33.000 L361.625 33.000" class="hidden"/>
<path d="M336.375 36.000 L336.375 33.000" class="hidden"/>
<path d="M336.375 92.500 L361.625 92.500" class="hidden"/>
<path d="M336.375 92.500 L336.375 65.625" class="hidden"/>
<path d="M336.375 65.625 L336.375 64.250" class="hidden"/>
<path d="M336.375 64.250 L336.375 62.875" class="hidden"/>
<path d="M336.375 62.875 L336.375 61.250" class="hidden"/>
<path d="M336.375 61.250 L336.375 36.000" class="hidden"/>
<path d="M336.375 36.000 L361.625 36.000" class="hidden"/>
<path d="M361.625 95.500 L364.625 95.500" class="hidden"/>
<path d="M336.375 92.500 L361.625 92.500" class="hidden"/>
<path d="M361.625 95.500 L361.625 92.500" class="hidden"/>
<path d="M334.625 92.500 L336.375 92.500" class="hidden"/>
<path d="M334.625 92.500 L336.375 92.500" class="hidden"/>
<path d="M361.625 92.500 L336.375 92.500" class="hidden"/>
<path d="M364.625 95.500 L364.625 92.500" class="hidden"/>
<path d="M364.625 36.000 L364.625 33.000" class="hidden"/>
<path d="M361.625 61.250 L361.625 36.000" class="hidden"/>
<path d="M361.625 36.000 L364.625 36.000" class="hidden"/>
<path d="M361.625 62.875 L361.625 61.250" class="hidden"/>
<path d="M361.625 64.250 L361.625 62.875" class="hidden"/>
<path d="M361.625 65.625 L361.625 64.250" class="hidden"/>
<path d="M361.625 92.500 L364.625 92.500" class="hidden"/>
<path d="M361.625 92.500 L361.625 65.625" class="hidden"/>
<path d="M361.625 36.000 L336.375 36.000" class="hidden"/>
<path d="M361.625 36.000 L361.625 33.000" class="hidden"/>
<path d="M361.625 33.000 L364.625 33.000" class="hidden"/>
<path d="M336.375 36.000 L361.625 36.000" class="hidden"/>
<path d="M334.625 36.000 L336.375 36.000" class="hidden"/>
<path d="M334.625 36.000 L336.375 36.000" class="hidden"/>
<path d="M364.625 95.500 L364.625 92.500" class="hidden"/>
<path d="M334.625 65.625 L334.625 92.500" class="hidden"/>
<path d="M334.625 64.250 L334.625 65.625" class="hidden"/>
<path d="M334.625 62.875 L334.625 64.250" class="hidden"/>
<path d="M334.625 61.250 L334.625 62.875" class="hidden"/>
<path d="M334.625 36.000 L334.625 61.250" class="hidden"/>
<path d="M364.625 36.000 L364.625 33.000" class="hidden"/>
<path d="M334.625 65.625 L334.625 92.500" class="hidden"/>
<path d="M334.625 36.000 L334.625 61.250" class="hidden"/>
<path d="M334.625 61.250 L334.625 62.875" class="hidden"/>
<path d="M334.625 62.875 L334.625 64.250" class="hidden"/>
<path d="M334.625 64.250 L334.625 65.625" class="hidden"/>
<path d="M336.375 92.500 L336.375 65.625" class="hidden"/>
<path d="M361.625 92.500 L364.625 92.500" class="hidden"/>
<path d="M336.375 92.500 L336.375 65.625" class="hidden"/>
<path d="M361.625 92.500 L361.625 65.625" class="hidden"/>
<path d="M336.375 65.625 L336.375 64.250" class="hidden"/>
<path d="M336.375 64.250 L336.375 62.875" class="hidden"/>
<path d="M336.375 62.875 L336.375 61.250" class="hidden"/>
<path d="M336.375 61.250 L336.375 36.000" class="hidden"/>
<path d="M361.625 61.250 L361.625 36.000" class="hidden"/>
<path d="M361.625 62.875 L361.625 61.250" class="hidden"/>
<path d="M361.625 64.250 L361.625 62.875" class="hidden"/>
<path d="M361.625 65.625 L361.625 64.250" class="hidden"/>
<path d="M361.625 36.000 L364.625 36.000" class="hidden"/>
<path d="M336.375 61.250 L336.375 36.000" class="hidden"/>
<path d="M361.625 92.500 L361.625 65.625" class="hidden"/>
<path d="M364.625 92.500 L364.625 65.625" class="hidden"/>
<path d="M361.625 92.500 L361.625 65.625" class="hidden"/>
<path d="M361.625 61.250 L361.625 36.000" class="hidden"/>
<path d="M361.625 61.250 L361.625 36.000" class="hidden"/>
<path d="M364.625 61.250 L364.625 36.000" class="hidden"/>
<path d="M364.625 92.500 L364.625 65.625" class="hidden"/>
<path d="M336.375 65.625 L336.375 64.250" class="hidden"/>
<path d="M336.375 64.250 L336.375 62.875" class="hidden"/>
<path d="M336.375 62.875 L336.375 61.250" class="hidden"/>
<path d="M364.625 61.250 L364.625 36.000" class="hidden"/>
<path d="M361.625 65.625 L361.625 64.250" class="hidden"/>
<path d="M364.625 65.625 L364.625 64.250" class="hidden"/>
<path d="M361.625 65.625 L361.625 64.250" class="hidden"/>
<path d="M361.625 62.875 L361.625 61.250" class="hidden"/>
<path d="M361.625 62.875 L361.625 61.250" class="hidden"/>
<path d="M364.625 62.875 L364.625 61.250" class="hidden"/>
<path d="M364.625 65.625 L364.625 64.250" class="hidden"/>
<path d="M364.625 62.875 L364.625 61.250" class="hidden"/>
<path d="M361.625 64.250 L361.625 62.875" class="hidden"/>
<path d="M364.625 64.250 L364.625 62.875" class="hidden"/>
<path d="M361.625 64.250 L361.625 62.875" class="hidden"/>
<path d="M364.625 64.250 L364.625 62.875" class="hidden"/>
<path d="M328.000 95.500 L328.000 33.000" class="hlr"/>
<path d="M328.000 33.000 L328.000 32.000" class="hlr"/>
<path d="M328.000 96.500 L328.000 95.500" class="hlr"/>
<path d="M328.000 96.500 L332.750 96.500" class="hlr"/>
<path d="M332.750 96.500 L332.750 95.500" class="hlr"/>
<path d="M328.000 32.000 L332.750 32.000" class="hlr"/>
<path d="M332.750 32.812 L332.750 32.000" class="hlr"/>
<path d="M332.750 95.500 L332.750 35.000" class="hlr"/>
<path d="M332.750 95.500 L333.375 95.500" class="hlr"/>
<path d="M332.750 35.000 L333.375 35.000" class="hlr"/>
<path d="M332.750 32.812 L333.375 32.812" class="hlr"/>
<path d="M333.375 95.500 L334.625 95.500" class="hlr"/>
<path d="M333.375 35.000 L364.625 35.000" class="hlr"/>
<path d="M333.375 32.812 L364.625 32.812" class="hlr"/>
<path d="M334.625 95.500 L364.625 95.500" class="hlr"/>
<path d="M364.625 35.000 L365.625 35.000" class="hlr"/>
<path d="M364.625 32.812 L365.625 32.812" class="hlr"/>
<path d="M365.625 35.000 L365.625 32.812" class="hlr"/>
<path d="M364.625 95.500 L364.625 35.000" class="hlr"/>
<rect x="378" y="70" width="22" height="40" rx="0" class="heavy" fill="#ffffff"/>
<text x="389" y="88" font-size="3.0" font-weight="bold" text-anchor="middle">M1</text>
<text x="389" y="96" font-size="1.9" font-weight="bold" text-anchor="middle">OUTSIDE</text>
<text x="368" y="148" font-size="2.1" font-weight="bold" text-anchor="middle" fill="#ba3d3d">BRICK + SERDES HUB NEVER ENTER WET VOLUME</text>
<text x="12" y="174" font-size="3.2" font-weight="bold" text-anchor="start">FOUR VIDEO DOCKS / TWO TACHYON CSI OPTIONS</text>
<text x="12" y="177.8" font-size="2.2" font-weight="normal" text-anchor="start">SCALE NTS - DO NOT SCALE</text>
<rect x="18" y="191" width="38" height="25" rx="0" class="med" fill="#ffffff"/>
<text x="37" y="203" font-size="2.2" font-weight="bold" text-anchor="middle">V1 GMSL2</text>
<rect x="68" y="191" width="38" height="25" rx="0" class="med" fill="#ffffff"/>
<text x="87" y="203" font-size="2.2" font-weight="bold" text-anchor="middle">V2 GMSL2</text>
<rect x="118" y="191" width="38" height="25" rx="0" class="med" fill="#ffffff"/>
<text x="137" y="203" font-size="2.2" font-weight="bold" text-anchor="middle">V3 GMSL2</text>
<rect x="168" y="191" width="38" height="25" rx="0" class="med" fill="#ffffff"/>
<text x="187" y="203" font-size="2.2" font-weight="bold" text-anchor="middle">V4 GMSL2</text>
<line x1="56" y1="203" x2="230" y2="203" class="thin" stroke="#0a7891"/>
<line x1="106" y1="203" x2="230" y2="203" class="thin" stroke="#0a7891"/>
<line x1="156" y1="203" x2="230" y2="203" class="thin" stroke="#0a7891"/>
<line x1="206" y1="203" x2="230" y2="203" class="thin" stroke="#0a7891"/>
<rect x="230" y="184" width="68" height="40" rx="0" class="heavy" fill="#ffffff"/>
<text x="264" y="202" font-size="3" font-weight="bold" text-anchor="middle">MAX96724</text>
<text x="264" y="210" font-size="2.1" font-weight="middle" text-anchor="start">AGGREGATE / ROUTE</text>
<line x1="298" y1="196" x2="320" y2="196" class="motion"/>
<line x1="298" y1="213" x2="320" y2="213" class="motion"/>
<rect x="320" y="181" width="82" height="47" rx="0" class="heavy" fill="#ffffff"/>
<text x="361" y="195" font-size="2.5" font-weight="bold" text-anchor="middle">DEDICATED CSI</text>
<text x="361" y="207" font-size="2.5" font-weight="bold" text-anchor="middle">SHARED DSI/CSI</text>
<text x="361" y="219" font-size="2.2" font-weight="bold" text-anchor="middle">GPIO 68 HIGH</text>
<rect x="12" y="231" width="190" height="15.0" rx="0" class="med" fill="#ffffff"/>
<text x="15" y="235.4" font-size="2.8" font-weight="bold" text-anchor="start">VERIFIED THIS RUN (PARTICLE / ADI PAGES)</text>
<text x="15" y="240" font-size="2.45" font-weight="normal" text-anchor="start">Tachyon 85x56x18.5; CSI 22p / 0.5 mm; 2.5 Gbps/lane.</text>
<text x="15" y="244" font-size="2.45" font-weight="normal" text-anchor="start">GPIO 68 HIGH selects CSI on shared DSI/CSI2. No CSI pin table reprinted.</text>
<rect x="215" y="231" width="190" height="15.0" rx="0" class="unverified" fill="#ffffff"/>
<text x="218" y="235.4" font-size="2.8" font-weight="bold" text-anchor="start">NOT DRAWN / UNVERIFIED</text>
<text x="218" y="240" font-size="2.45" font-weight="normal" text-anchor="start">No HAT pin numbers. EE-23 transcribed CSI photos stay in the library.</text>
<text x="218" y="244" font-size="2.45" font-weight="normal" text-anchor="start">IMX519/S5K3P9SX are listed sensors; orderable module SKU is not selected.</text>
<line x1="8" y1="257.0" x2="412" y2="257.0" class="heavy"/>
<rect x="8" y="257.0" width="404" height="32" rx="0" class="med"/>
<line x1="270" y1="257.0" x2="270" y2="289" class="med"/>
<line x1="334" y1="257.0" x2="334" y2="289" class="med"/>
<line x1="376" y1="257.0" x2="376" y2="289" class="med"/>
<line x1="270" y1="268.0" x2="412" y2="268.0" class="thin"/>
<line x1="270" y1="278.0" x2="412" y2="278.0" class="thin"/>
<text x="13" y="265.0" font-size="5.0" font-weight="bold" text-anchor="start">PARTICLE-BASE MANTIS TERRARIUM</text>
<text x="13" y="272.0" font-size="4.0" font-weight="bold" text-anchor="start">SERDES / CSI / PARTICLE BRICK</text>
<text x="13" y="280.0" font-size="2.8" font-weight="bold" text-anchor="start" fill="#ba3d3d">THEORETICAL - VERIFY AGAINST STEP / FIRST ARTICLE</text>
<text x="13" y="285.0" font-size="2.2" font-weight="normal" text-anchor="start">Units: mm | Projection: THIRD-ANGLE (ASME Y14.3) | Color: nets / motion / keep-out only</text>
<text x="273" y="261.0" font-size="1.9" font-weight="bold" text-anchor="start">SCALE</text>
<text x="273" y="265.0" font-size="2.5" font-weight="normal" text-anchor="start">NTS</text>
<text x="337" y="261.0" font-size="1.9" font-weight="bold" text-anchor="start">DATE</text>
<text x="337" y="265.0" font-size="2.5" font-weight="normal" text-anchor="start">2026-08-20</text>
<text x="379" y="261.0" font-size="1.9" font-weight="bold" text-anchor="start">REV</text>
<text x="379" y="265.0" font-size="2.5" font-weight="normal" text-anchor="start">B-41P</text>
<text x="273" y="272.0" font-size="1.9" font-weight="bold" text-anchor="start">SHEET</text>
<text x="273" y="276.0" font-size="2.5" font-weight="normal" text-anchor="start">10 OF 12 / S09</text>
<text x="337" y="272.0" font-size="1.9" font-weight="bold" text-anchor="start">STATUS</text>
<text x="337" y="276.0" font-size="2.5" font-weight="normal" text-anchor="start">THEORETICAL</text>
<text x="379" y="272.0" font-size="1.9" font-weight="bold" text-anchor="start">DRAWN</text>
<text x="379" y="276.0" font-size="2.5" font-weight="normal" text-anchor="start">GBG#41</text>
<text x="273" y="282.0" font-size="1.9" font-weight="bold" text-anchor="start">DWG</text>
<text x="273" y="286.0" font-size="2.5" font-weight="normal" text-anchor="start">MT-S09</text>
<text x="337" y="282.0" font-size="1.9" font-weight="bold" text-anchor="start">FORMAT</text>
<text x="337" y="286.0" font-size="2.5" font-weight="normal" text-anchor="start">A3 SVG/PDF</text>
<text x="379" y="282.0" font-size="1.9" font-weight="bold" text-anchor="start">TOL</text>
<text x="379" y="286.0" font-size="2.5" font-weight="normal" text-anchor="start">AS NOTED</text>
<path d="M226 276.0 L238 273.0 L238 284.0 L226 281.0 Z" class="med"/>
<circle cx="246" cy="278.5" r="6" class="med"/>
<text x="236" y="287.0" font-size="1.8" font-weight="bold" text-anchor="middle">3RD ANGLE</text>
<rect x="196" y="264.0" width="58" height="7" rx="0" class="unverified"/>
<text x="225" y="268.8" font-size="2.0" font-weight="bold" text-anchor="middle" fill="#ba3d3d">NTS - DO NOT SCALE</text>
<line x1="198" y1="274.0" x2="206" y2="274.0" class="heavy"/>
<text x="208" y="275.2" font-size="1.7" font-weight="normal" text-anchor="start">geom</text>
<line x1="198" y1="278.5" x2="206" y2="278.5" class="motion"/>
<text x="208" y="279.7" font-size="1.7" font-weight="normal" text-anchor="start">motion</text>
<rect x="198" y="281.2" width="8" height="3.2" rx="0" class="keepout"/>
<text x="208" y="283.8" font-size="1.7" font-weight="normal" text-anchor="start">keep-out</text>
<line x1="198" y1="287.2" x2="206" y2="287.2" class="med" stroke="#0a7891"/>
<text x="208" y="288.4" font-size="1.7" font-weight="normal" text-anchor="start">net</text>
</svg>