<svg xmlns="http://www.w3.org/2000/svg" width="420mm" height="297mm" viewBox="0 0 420 297">
<rect width="420" height="297" fill="#fcfcfb"/>
<defs>
  <marker id="arr" markerWidth="6" markerHeight="6" refX="3" refY="3" orient="auto" markerUnits="strokeWidth"><path d="M0,0 L6,3 L0,6 z" fill="#15171a"/></marker>
  <marker id="arr-orange" markerWidth="6" markerHeight="6" refX="3" refY="3" orient="auto" markerUnits="strokeWidth"><path d="M0,0 L6,3 L0,6 z" fill="#d65a24"/></marker>
  <pattern id="hatch" width="3" height="3" patternUnits="userSpaceOnUse" patternTransform="rotate(45)"><line x1="0" y1="0" x2="0" y2="3" stroke="#7b7e83" stroke-width="0.25"/></pattern>
  <pattern id="screen" width="3" height="3" patternUnits="userSpaceOnUse"><path d="M0,0 L3,3 M3,0 L0,3" stroke="#88909a" stroke-width="0.18"/></pattern>
  <style>
    text { font-family: Arial, Helvetica, sans-serif; fill:#15171a; }
    .thin { stroke:#15171a; stroke-width:.28; fill:none; }
    .med { stroke:#15171a; stroke-width:.55; fill:none; }
    .heavy { stroke:#15171a; stroke-width:1.05; fill:none; }
    .hidden { stroke:#59616b; stroke-width:.28; stroke-dasharray:2 1.2; fill:none; }
    .phantom { stroke:#d65a24; stroke-width:.35; stroke-dasharray:5 1 1 1; fill:none; }
    .center { stroke:#73808d; stroke-width:.22; stroke-dasharray:4 1 1 1; fill:none; }
    .dim { stroke:#15171a; stroke-width:.25; fill:none; marker-start:url(#arr); marker-end:url(#arr); }
    .leader { stroke:#15171a; stroke-width:.3; fill:none; marker-end:url(#arr); }
    .motion { stroke:#d65a24; stroke-width:.55; fill:none; marker-end:url(#arr-orange); }
    .ref { fill:#fff6d9; stroke:#c49817; stroke-width:.25; }
    .unverified { fill:#fff0f0; stroke:#ba3d3d; stroke-width:.3; }
    .keepout { fill:#dd3c3c; fill-opacity:.08; stroke:#c63333; stroke-width:.35; stroke-dasharray:4 2; }
    .metal { fill:#e1e4e8; stroke:#15171a; stroke-width:.35; }
    .plastic { fill:#f7f8f9; stroke:#15171a; stroke-width:.35; }
    .cut { fill:url(#hatch); stroke:#15171a; stroke-width:.45; }
  </style>
</defs>
<text x="12" y="15" font-size="3.2" font-weight="bold" text-anchor="start">SECTION THROUGH ANIMAL VOLUME</text>
<text x="12" y="18.8" font-size="2.3" font-weight="normal" text-anchor="start">SCALE NTS - DO NOT SCALE</text>
<rect x="38" y="31" width="86" height="172" rx="0" class="heavy"/>
<rect x="44" y="37" width="74" height="160" rx="0" class="thin" fill="#f9fbfc"/>
<rect x="44" y="37" width="74" height="10" rx="0" class="thin" fill="url(#screen)"/>
<rect x="44" y="47" width="74" height="52" rx="0" class="keepout"/>
<text x="81" y="70" font-size="3.4" font-weight="bold" text-anchor="middle" fill="#b52d2d">MOLT KEEP-OUT</text>
<line x1="81" y1="99" x2="81" y2="181" class="thin"/>
<path d="M60 130 C75 115 90 145 105 126" class="med"/>
<rect x="47" y="184" width="68" height="9" rx="0" class="med" fill="#e6ecef"/>
<text x="81" y="213" font-size="2.4" font-weight="bold" text-anchor="middle">FALSE BOTTOM + 25 TRAY REF</text>
<rect x="31" y="27" width="100" height="4" rx="0" class="med" fill="#dce2e6"/>
<rect x="25" y="25" width="20" height="8" rx="2" class="heavy" fill="#fff"/>
<rect x="34" y="31" width="6" height="172" rx="0" class="keepout"/>
<text x="37" y="118" font-size="2.6" font-weight="bold" text-anchor="start" fill="#b52d2d" transform="rotate(-90 37 118)">B20</text>
<line x1="34" y1="31" x2="34" y2="203" class="phantom"/>
<text x="22" y="90" font-size="2.2" font-weight="bold" text-anchor="start" transform="rotate(-90 22 90)">EXTERNAL RAIL</text>
<text x="22" y="150" font-size="2.2" font-weight="bold" text-anchor="start" fill="#b52d2d" transform="rotate(-90 22 150)">NO METAL IN</text>
<line x1="38" y1="31" x2="10" y2="31" class="thin"/>
<line x1="38" y1="203" x2="10" y2="203" class="thin"/>
<line x1="10" y1="31" x2="10" y2="203" class="dim"/>
<text x="8.3" y="117.0" font-size="2.7" font-weight="normal" text-anchor="middle" transform="rotate(-90 8.3 117.0)">500 LOCK</text>
<rect x="44" y="166" width="5" height="18" rx="0" class="thin" fill="url(#screen)"/>
<rect x="113" y="62" width="5" height="18" rx="0" class="thin" fill="url(#screen)"/>
<path d="M28 177 C55 177 66 165 72 151" class="motion"/>
<path d="M85 90 C100 78 110 71 132 70" class="motion"/>
<text x="51" y="224" font-size="2.5" font-weight="bold" text-anchor="start">LOW INTAKE -&gt; HIGH EXHAUST</text>
<text x="81" y="232" font-size="2.2" font-weight="bold" text-anchor="middle">NOMINAL CLEAR 202 W x 202 D x 427 H CALCULATED</text>
<text x="161" y="15" font-size="3.2" font-weight="bold" text-anchor="start">DOOR SWING / SERVICE ENVELOPE</text>
<text x="161" y="18.8" font-size="2.3" font-weight="normal" text-anchor="start">SCALE NTS - DO NOT SCALE</text>
<rect x="180" y="45" width="50" height="100" rx="0" class="heavy"/>
<line x1="180" y1="45" x2="180" y2="145" class="heavy"/>
<path d="M180 45 A100 100 0 0 1 280 145" class="phantom"/>
<line x1="180" y1="145" x2="276" y2="145" class="motion"/>
<text x="230" y="155" font-size="2.6" font-weight="bold" text-anchor="middle">90 deg MIN SERVICE SWING</text>
<rect x="190" y="55" width="30" height="35" rx="0" class="keepout"/>
<text x="205" y="73" font-size="2.3" font-weight="bold" text-anchor="middle" fill="#b52d2d">UPPER</text>
<text x="205" y="78" font-size="2.3" font-weight="bold" text-anchor="middle" fill="#b52d2d">CLEAR</text>
<text x="286" y="15" font-size="3.2" font-weight="bold" text-anchor="start">DETAIL J - NYMPH-PROOF GAP</text>
<text x="286" y="18.8" font-size="2.3" font-weight="normal" text-anchor="start">SCALE NTS - DO NOT SCALE</text>
<rect x="310" y="42" width="28" height="72" rx="0" class="cut"/>
<rect x="343" y="42" width="28" height="72" rx="0" class="cut"/>
<rect x="337" y="48" width="7" height="60" rx="0" class="plastic"/>
<line x1="338" y1="108" x2="338" y2="125" class="thin"/>
<line x1="343" y1="108" x2="343" y2="125" class="thin"/>
<line x1="338" y1="125" x2="343" y2="125" class="dim"/>
<text x="340.5" y="123.6" font-size="2.7" font-weight="normal" text-anchor="middle">&lt;=0.50 TARGET</text>
<text x="340" y="137" font-size="2.5" font-weight="bold" text-anchor="middle">LABYRINTH + COMPRESSIBLE WIPER</text>
<text x="340" y="145" font-size="2.5" font-weight="bold" text-anchor="middle">SCREEN APERTURE &lt;=0.8 LOCK</text>
<rect x="161" y="179" width="116" height="27.0" rx="1.2" class="med" fill="#fff0f0"/>
<text x="164" y="183.4" font-size="2.8" font-weight="bold" text-anchor="start">B20 KEEP-OUT (CAD-01)</text>
<text x="164" y="188" font-size="2.45" font-weight="normal" text-anchor="start">Barrier bbox -8..250 X,</text>
<text x="164" y="192" font-size="2.45" font-weight="normal" text-anchor="start">-8..250 Y, 0..500 Z REF.</text>
<text x="164" y="196" font-size="2.45" font-weight="normal" text-anchor="start">Fused across front+left joints/splices/door.</text>
<text x="164" y="200" font-size="2.45" font-weight="normal" text-anchor="start">Not a film over contacts.</text>
<text x="164" y="204" font-size="2.45" font-weight="normal" text-anchor="start">Molt keep-out 142 CALCULATED.</text>
<rect x="289" y="179" width="116" height="27.0" rx="1.2" class="med" fill="#fff0f0"/>
<text x="292" y="183.4" font-size="2.8" font-weight="bold" text-anchor="start">WET-VOLUME RULE</text>
<text x="292" y="188" font-size="2.45" font-weight="normal" text-anchor="start">No metal mesh / copper / pogo.</text>
<text x="292" y="192" font-size="2.45" font-weight="normal" text-anchor="start">PETG or ASA wet parts.</text>
<text x="292" y="196" font-size="2.45" font-weight="normal" text-anchor="start">Nymph gap &lt;=0.50 TARGET.</text>
<text x="292" y="200" font-size="2.45" font-weight="normal" text-anchor="start">Solo animal. No taxon inferred.</text>
<text x="292" y="204" font-size="2.45" font-weight="normal" text-anchor="start">Heat-mat pass only; no mains.</text>
<line x1="8" y1="257.0" x2="412" y2="257.0" class="heavy"/>
<rect x="8" y="257.0" width="404" height="32" rx="0" class="med"/>
<line x1="270" y1="257.0" x2="270" y2="289" class="med"/>
<line x1="334" y1="257.0" x2="334" y2="289" class="med"/>
<line x1="376" y1="257.0" x2="376" y2="289" class="med"/>
<line x1="270" y1="268.0" x2="412" y2="268.0" class="thin"/>
<line x1="270" y1="278.0" x2="412" y2="278.0" class="thin"/>
<text x="13" y="265.0" font-size="5.0" font-weight="bold" text-anchor="start">PARTICLE-BASE MANTIS TERRARIUM</text>
<text x="13" y="272.0" font-size="4.0" font-weight="bold" text-anchor="start">HUSBANDRY INTERFERENCE</text>
<text x="13" y="280.0" font-size="3.0" font-weight="bold" text-anchor="start" fill="#ba3d3d">THEORETICAL - VERIFY AGAINST STEP / FIRST ARTICLE</text>
<text x="13" y="285.0" font-size="2.5" font-weight="normal" text-anchor="start">Units: mm | Projection: THIRD-ANGLE (ASME Y14.3)</text>
<text x="273" y="261.0" font-size="1.9" font-weight="bold" text-anchor="start">SCALE</text>
<text x="273" y="265.0" font-size="2.5" font-weight="normal" text-anchor="start">NTS</text>
<text x="337" y="261.0" font-size="1.9" font-weight="bold" text-anchor="start">DATE</text>
<text x="337" y="265.0" font-size="2.5" font-weight="normal" text-anchor="start">2026-08-20</text>
<text x="379" y="261.0" font-size="1.9" font-weight="bold" text-anchor="start">REV</text>
<text x="379" y="265.0" font-size="2.5" font-weight="normal" text-anchor="start">B-41</text>
<text x="273" y="272.0" font-size="1.9" font-weight="bold" text-anchor="start">SHEET</text>
<text x="273" y="276.0" font-size="2.5" font-weight="normal" text-anchor="start">11 OF 12 / S10</text>
<text x="337" y="272.0" font-size="1.9" font-weight="bold" text-anchor="start">STATUS</text>
<text x="337" y="276.0" font-size="2.5" font-weight="normal" text-anchor="start">THEORETICAL</text>
<text x="379" y="272.0" font-size="1.9" font-weight="bold" text-anchor="start">DRAWN</text>
<text x="379" y="276.0" font-size="2.5" font-weight="normal" text-anchor="start">GBG#41</text>
<text x="273" y="282.0" font-size="1.9" font-weight="bold" text-anchor="start">DWG</text>
<text x="273" y="286.0" font-size="2.5" font-weight="normal" text-anchor="start">MT-S10</text>
<text x="337" y="282.0" font-size="1.9" font-weight="bold" text-anchor="start">FORMAT</text>
<text x="337" y="286.0" font-size="2.5" font-weight="normal" text-anchor="start">A3 SVG/PDF</text>
<text x="379" y="282.0" font-size="1.9" font-weight="bold" text-anchor="start">TOL</text>
<text x="379" y="286.0" font-size="2.5" font-weight="normal" text-anchor="start">AS NOTED</text>
<path d="M226 276.0 L238 273.0 L238 284.0 L226 281.0 Z" class="med"/>
<circle cx="246" cy="278.5" r="6" class="med"/>
<text x="236" y="287.0" font-size="1.8" font-weight="bold" text-anchor="middle">3RD ANGLE</text>
<rect x="196" y="264.0" width="58" height="7" rx="1" class="unverified" fill="#fff0f0"/>
<text x="225" y="268.8" font-size="2.0" font-weight="bold" text-anchor="middle" fill="#ba3d3d">NTS - DO NOT SCALE</text>
</svg>