{
  "asset": {
    "version": "2.0",
    "generator": "circuit-json-to-gltf"
  },
  "scene": 0,
  "scenes": [
    {
      "name": "Scene",
      "nodes": [
        0,
        1,
        2,
        3,
        4,
        5
      ]
    }
  ],
  "nodes": [
    {
      "name": "Box0",
      "mesh": 0,
      "translation": [
        0,
        0,
        0
      ]
    },
    {
      "name": "B27",
      "mesh": 1,
      "translation": [
        20,
        0.7,
        0
      ]
    },
    {
      "name": "B50",
      "mesh": 1,
      "translation": [
        -20,
        0.7,
        0
      ]
    },
    {
      "name": "B44",
      "mesh": 2,
      "translation": [
        0,
        0.7,
        12
      ]
    },
    {
      "name": "S1",
      "mesh": 3,
      "translation": [
        10,
        0.7,
        -12
      ]
    },
    {
      "name": "S2",
      "mesh": 3,
      "translation": [
        0,
        0.7,
        -12
      ]
    }
  ],
  "meshes": [
    {
      "name": "MeshWithTextures0",
      "primitives": [
        {
          "attributes": {
            "POSITION": 0,
            "NORMAL": 1,
            "TEXCOORD_0": 2
          },
          "indices": 3,
          "material": 1,
          "mode": 4
        },
        {
          "attributes": {
            "POSITION": 4,
            "NORMAL": 5,
            "TEXCOORD_0": 6
          },
          "indices": 7,
          "material": 2,
          "mode": 4
        },
        {
          "attributes": {
            "POSITION": 8,
            "NORMAL": 9,
            "TEXCOORD_0": 10
          },
          "indices": 11,
          "material": 3,
          "mode": 4
        }
      ]
    },
    {
      "name": "B27",
      "primitives": [
        {
          "attributes": {
            "POSITION": 12,
            "NORMAL": 13,
            "TEXCOORD_0": 14
          },
          "indices": 15,
          "material": 4,
          "mode": 4
        },
        {
          "attributes": {
            "POSITION": 16,
            "NORMAL": 17,
            "TEXCOORD_0": 18
          },
          "indices": 19,
          "material": 5,
          "mode": 4
        }
      ]
    },
    {
      "name": "B44",
      "primitives": [
        {
          "attributes": {
            "POSITION": 20,
            "NORMAL": 21,
            "TEXCOORD_0": 22
          },
          "indices": 23,
          "material": 6,
          "mode": 4
        },
        {
          "attributes": {
            "POSITION": 24,
            "NORMAL": 25,
            "TEXCOORD_0": 26
          },
          "indices": 27,
          "material": 7,
          "mode": 4
        }
      ]
    },
    {
      "name": "S1",
      "primitives": [
        {
          "attributes": {
            "POSITION": 28,
            "NORMAL": 29,
            "TEXCOORD_0": 30
          },
          "indices": 31,
          "material": 4,
          "mode": 4
        },
        {
          "attributes": {
            "POSITION": 32,
            "NORMAL": 33,
            "TEXCOORD_0": 34
          },
          "indices": 35,
          "material": 5,
          "mode": 4
        }
      ]
    }
  ],
  "materials": [
    {
      "name": "Default",
      "pbrMetallicRoughness": {
        "baseColorFactor": [
          0.35,
          0.35,
          0.35,
          0.5
        ],
        "metallicFactor": 0.05,
        "roughnessFactor": 0.95
      },
      "alphaMode": "BLEND"
    },
    {
      "name": "TopMaterial_1",
      "pbrMetallicRoughness": {
        "baseColorFactor": [
          1,
          1,
          1,
          1
        ],
        "metallicFactor": 0,
        "roughnessFactor": 0.8,
        "baseColorTexture": {
          "index": 0
        }
      },
      "alphaMode": "OPAQUE",
      "doubleSided": true
    },
    {
      "name": "BottomMaterial_2",
      "pbrMetallicRoughness": {
        "metallicFactor": 0,
        "roughnessFactor": 0.8,
        "baseColorTexture": {
          "index": 1
        }
      },
      "alphaMode": "OPAQUE",
      "doubleSided": true
    },
    {
      "name": "GreenSideMaterial_3",
      "pbrMetallicRoughness": {
        "baseColorFactor": [
          0.04,
          0.16,
          0.08,
          1
        ],
        "metallicFactor": 0,
        "roughnessFactor": 0.8
      },
      "alphaMode": "OPAQUE",
      "doubleSided": true
    },
    {
      "name": "OBJ_Material_0",
      "pbrMetallicRoughness": {
        "baseColorFactor": [
          0.13333333333333333,
          0.13333333333333333,
          0.13333333333333333,
          1
        ],
        "metallicFactor": 0.05,
        "roughnessFactor": 0.95
      },
      "alphaMode": "OPAQUE"
    },
    {
      "name": "OBJ_Material_1",
      "pbrMetallicRoughness": {
        "baseColorFactor": [
          1,
          1,
          1,
          1
        ],
        "metallicFactor": 0.05,
        "roughnessFactor": 0.95
      },
      "alphaMode": "OPAQUE"
    },
    {
      "name": "OBJ_Material_0",
      "pbrMetallicRoughness": {
        "baseColorFactor": [
          0.2,
          0.2,
          0.2,
          1
        ],
        "metallicFactor": 0.05,
        "roughnessFactor": 0.95
      },
      "alphaMode": "OPAQUE"
    },
    {
      "name": "OBJ_Material_1",
      "pbrMetallicRoughness": {
        "baseColorFactor": [
          0.8,
          0.8,
          0.8,
          1
        ],
        "metallicFactor": 0.05,
        "roughnessFactor": 0.95
      },
      "alphaMode": "OPAQUE"
    }
  ],
  "accessors": [
    {
      "bufferView": 0,
      "componentType": 5126,
      "count": 2190,
      "type": "VEC3",
      "min": [
        -40,
        0.7,
        -20
      ],
      "max": [
        40,
        0.7,
        20
      ]
    },
    {
      "bufferView": 1,
      "componentType": 5126,
      "count": 2190,
      "type": "VEC3",
      "min": [
        0,
        1,
        0
      ],
      "max": [
        0,
        1,
        0
      ]
    },
    {
      "bufferView": 2,
      "componentType": 5126,
      "count": 2190,
      "type": "VEC2"
    },
    {
      "bufferView": 3,
      "componentType": 5123,
      "count": 2190,
      "type": "SCALAR"
    },
    {
      "bufferView": 4,
      "componentType": 5126,
      "count": 2190,
      "type": "VEC3",
      "min": [
        -40,
        -0.7,
        -20
      ],
      "max": [
        40,
        -0.7,
        20
      ]
    },
    {
      "bufferView": 5,
      "componentType": 5126,
      "count": 2190,
      "type": "VEC3",
      "min": [
        0,
        -1,
        0
      ],
      "max": [
        0,
        -1,
        0
      ]
    },
    {
      "bufferView": 6,
      "componentType": 5126,
      "count": 2190,
      "type": "VEC2"
    },
    {
      "bufferView": 7,
      "componentType": 5123,
      "count": 2190,
      "type": "SCALAR"
    },
    {
      "bufferView": 8,
      "componentType": 5126,
      "count": 4056,
      "type": "VEC3",
      "min": [
        -40,
        -0.7,
        -20
      ],
      "max": [
        40,
        0.7,
        20
      ]
    },
    {
      "bufferView": 9,
      "componentType": 5126,
      "count": 4056,
      "type": "VEC3",
      "min": [
        -1,
        0,
        -1
      ],
      "max": [
        1,
        0,
        1
      ]
    },
    {
      "bufferView": 10,
      "componentType": 5126,
      "count": 4056,
      "type": "VEC2"
    },
    {
      "bufferView": 11,
      "componentType": 5123,
      "count": 4056,
      "type": "SCALAR"
    },
    {
      "bufferView": 12,
      "componentType": 5126,
      "count": 432,
      "type": "VEC3",
      "min": [
        -15.239999771118164,
        -3.5999999046325684,
        -1.2699999809265148
      ],
      "max": [
        15.239999771118164,
        -1.6000000238418577,
        1.2699999809265163
      ]
    },
    {
      "bufferView": 13,
      "componentType": 5126,
      "count": 432,
      "type": "VEC3",
      "min": [
        -1,
        -1,
        -1
      ],
      "max": [
        1,
        1,
        1
      ]
    },
    {
      "bufferView": 14,
      "componentType": 5126,
      "count": 432,
      "type": "VEC2"
    },
    {
      "bufferView": 15,
      "componentType": 5125,
      "count": 432,
      "type": "SCALAR"
    },
    {
      "bufferView": 16,
      "componentType": 5126,
      "count": 1440,
      "type": "VEC3",
      "min": [
        -14.28499984741211,
        -9.600000381469727,
        -0.31499999761581593
      ],
      "max": [
        14.28499984741211,
        0.8999999761581421,
        0.3149999976158172
      ]
    },
    {
      "bufferView": 17,
      "componentType": 5126,
      "count": 1440,
      "type": "VEC3",
      "min": [
        -1,
        -1,
        -1
      ],
      "max": [
        1,
        1,
        1
      ]
    },
    {
      "bufferView": 18,
      "componentType": 5126,
      "count": 1440,
      "type": "VEC2"
    },
    {
      "bufferView": 19,
      "componentType": 5125,
      "count": 1440,
      "type": "SCALAR"
    },
    {
      "bufferView": 20,
      "componentType": 5126,
      "count": 36,
      "type": "VEC3",
      "min": [
        -0.5,
        -5.204749042365526e-17,
        -0.425000011920929
      ],
      "max": [
        0.5,
        0.6000000238418579,
        0.42500001192092907
      ]
    },
    {
      "bufferView": 21,
      "componentType": 5126,
      "count": 36,
      "type": "VEC3",
      "min": [
        -1,
        -1,
        -1
      ],
      "max": [
        1,
        1,
        1
      ]
    },
    {
      "bufferView": 22,
      "componentType": 5126,
      "count": 36,
      "type": "VEC2"
    },
    {
      "bufferView": 23,
      "componentType": 5125,
      "count": 36,
      "type": "SCALAR"
    },
    {
      "bufferView": 24,
      "componentType": 5126,
      "count": 72,
      "type": "VEC3",
      "min": [
        -0.800000011920929,
        -5.204749042365526e-17,
        -0.42500001192092907
      ],
      "max": [
        0.800000011920929,
        0.6000000238418579,
        0.4250000119209291
      ]
    },
    {
      "bufferView": 25,
      "componentType": 5126,
      "count": 72,
      "type": "VEC3",
      "min": [
        -1,
        -1,
        -1
      ],
      "max": [
        1,
        1,
        1
      ]
    },
    {
      "bufferView": 26,
      "componentType": 5126,
      "count": 72,
      "type": "VEC2"
    },
    {
      "bufferView": 27,
      "componentType": 5125,
      "count": 72,
      "type": "SCALAR"
    },
    {
      "bufferView": 28,
      "componentType": 5126,
      "count": 72,
      "type": "VEC3",
      "min": [
        -2.5399999618530273,
        -3.5999999046325684,
        -1.2699999809265132
      ],
      "max": [
        2.5399999618530273,
        -1.6000000238418577,
        1.2699999809265148
      ]
    },
    {
      "bufferView": 29,
      "componentType": 5126,
      "count": 72,
      "type": "VEC3",
      "min": [
        -1,
        -1,
        -1
      ],
      "max": [
        1,
        1,
        1
      ]
    },
    {
      "bufferView": 30,
      "componentType": 5126,
      "count": 72,
      "type": "VEC2"
    },
    {
      "bufferView": 31,
      "componentType": 5125,
      "count": 72,
      "type": "SCALAR"
    },
    {
      "bufferView": 32,
      "componentType": 5126,
      "count": 240,
      "type": "VEC3",
      "min": [
        -1.5850000381469727,
        -9.600000381469727,
        -0.3149999976158143
      ],
      "max": [
        1.5850000381469727,
        0.8999999761581421,
        0.3149999976158156
      ]
    },
    {
      "bufferView": 33,
      "componentType": 5126,
      "count": 240,
      "type": "VEC3",
      "min": [
        -1,
        -1,
        -1
      ],
      "max": [
        1,
        1,
        1
      ]
    },
    {
      "bufferView": 34,
      "componentType": 5126,
      "count": 240,
      "type": "VEC2"
    },
    {
      "bufferView": 35,
      "componentType": 5125,
      "count": 240,
      "type": "SCALAR"
    }
  ],
  "bufferViews": [
    {
      "buffer": 0,
      "byteOffset": 0,
      "byteLength": 26280,
      "target": 34962
    },
    {
      "buffer": 0,
      "byteOffset": 26280,
      "byteLength": 26280,
      "target": 34962
    },
    {
      "buffer": 0,
      "byteOffset": 52560,
      "byteLength": 17520,
      "target": 34962
    },
    {
      "buffer": 0,
      "byteOffset": 70080,
      "byteLength": 4380,
      "target": 34963
    },
    {
      "buffer": 0,
      "byteOffset": 74460,
      "byteLength": 26280,
      "target": 34962
    },
    {
      "buffer": 0,
      "byteOffset": 100740,
      "byteLength": 26280,
      "target": 34962
    },
    {
      "buffer": 0,
      "byteOffset": 127020,
      "byteLength": 17520,
      "target": 34962
    },
    {
      "buffer": 0,
      "byteOffset": 144540,
      "byteLength": 4380,
      "target": 34963
    },
    {
      "buffer": 0,
      "byteOffset": 148920,
      "byteLength": 48672,
      "target": 34962
    },
    {
      "buffer": 0,
      "byteOffset": 197592,
      "byteLength": 48672,
      "target": 34962
    },
    {
      "buffer": 0,
      "byteOffset": 246264,
      "byteLength": 32448,
      "target": 34962
    },
    {
      "buffer": 0,
      "byteOffset": 278712,
      "byteLength": 8112,
      "target": 34963
    },
    {
      "buffer": 0,
      "byteOffset": 286824,
      "byteLength": 5184,
      "target": 34962
    },
    {
      "buffer": 0,
      "byteOffset": 292008,
      "byteLength": 5184,
      "target": 34962
    },
    {
      "buffer": 0,
      "byteOffset": 297192,
      "byteLength": 3456,
      "target": 34962
    },
    {
      "buffer": 0,
      "byteOffset": 300648,
      "byteLength": 1728,
      "target": 34963
    },
    {
      "buffer": 0,
      "byteOffset": 302376,
      "byteLength": 17280,
      "target": 34962
    },
    {
      "buffer": 0,
      "byteOffset": 319656,
      "byteLength": 17280,
      "target": 34962
    },
    {
      "buffer": 0,
      "byteOffset": 336936,
      "byteLength": 11520,
      "target": 34962
    },
    {
      "buffer": 0,
      "byteOffset": 348456,
      "byteLength": 5760,
      "target": 34963
    },
    {
      "buffer": 0,
      "byteOffset": 354216,
      "byteLength": 432,
      "target": 34962
    },
    {
      "buffer": 0,
      "byteOffset": 354648,
      "byteLength": 432,
      "target": 34962
    },
    {
      "buffer": 0,
      "byteOffset": 355080,
      "byteLength": 288,
      "target": 34962
    },
    {
      "buffer": 0,
      "byteOffset": 355368,
      "byteLength": 144,
      "target": 34963
    },
    {
      "buffer": 0,
      "byteOffset": 355512,
      "byteLength": 864,
      "target": 34962
    },
    {
      "buffer": 0,
      "byteOffset": 356376,
      "byteLength": 864,
      "target": 34962
    },
    {
      "buffer": 0,
      "byteOffset": 357240,
      "byteLength": 576,
      "target": 34962
    },
    {
      "buffer": 0,
      "byteOffset": 357816,
      "byteLength": 288,
      "target": 34963
    },
    {
      "buffer": 0,
      "byteOffset": 358104,
      "byteLength": 864,
      "target": 34962
    },
    {
      "buffer": 0,
      "byteOffset": 358968,
      "byteLength": 864,
      "target": 34962
    },
    {
      "buffer": 0,
      "byteOffset": 359832,
      "byteLength": 576,
      "target": 34962
    },
    {
      "buffer": 0,
      "byteOffset": 360408,
      "byteLength": 288,
      "target": 34963
    },
    {
      "buffer": 0,
      "byteOffset": 360696,
      "byteLength": 2880,
      "target": 34962
    },
    {
      "buffer": 0,
      "byteOffset": 363576,
      "byteLength": 2880,
      "target": 34962
    },
    {
      "buffer": 0,
      "byteOffset": 366456,
      "byteLength": 1920,
      "target": 34962
    },
    {
      "buffer": 0,
      "byteOffset": 368376,
      "byteLength": 960,
      "target": 34963
    },
    {
      "buffer": 0,
      "byteOffset": 369336,
      "byteLength": 19211
    },
    {
      "buffer": 0,
      "byteOffset": 388547,
      "byteLength": 11309
    }
  ],
  "images": [
    {
      "mimeType": "image/png",
      "bufferView": 36
    },
    {
      "mimeType": "image/png",
      "bufferView": 37
    }
  ],
  "textures": [
    {
      "source": 0,
      "sampler": 0
    },
    {
      "source": 1,
      "sampler": 0
    }
  ],
  "samplers": [
    {
      "magFilter": 9729,
      "minFilter": 9987,
      "wrapS": 10497,
      "wrapT": 10497
    }
  ],
  "buffers": [
    {
      "byteLength": 399856,
      "uri": "data:application/octet-stream;base64,"
    }
  ]
}